<svg width="566" height="394" viewBox="0 0 566 394" fill="none" xmlns="http://www.w3.org/2000/svg">
<g clip-path="url(#clip0_589_4)">
<path d="M112.772 394C175.054 394 225.543 390.163 225.543 385.431C225.543 380.698 175.054 376.861 112.772 376.861C50.4896 376.861 0 380.698 0 385.431C0 390.163 50.4896 394 112.772 394Z" fill="#E6E6E6"/>
<path d="M86.2007 87.4215C105.826 79.0697 130.27 84.3613 154.143 88.0339C154.365 83.5864 157.058 78.1735 154.237 75.0707C150.81 71.301 151.126 67.3402 153.188 63.3565C158.461 53.1697 150.906 42.3303 143.278 33.3175C141.559 31.2906 139.386 29.6981 136.936 28.6692C134.486 27.6404 131.828 27.2042 129.178 27.3962L115.047 28.406C111.609 28.6517 108.327 29.9423 105.642 32.1049C102.957 34.2676 100.995 37.1992 100.021 40.5075C96.6467 45.0987 94.8408 49.6772 95.9778 54.2318C90.924 57.6873 90.0749 61.8584 92.3459 66.5606C94.2716 69.5212 94.2511 72.4032 92.2583 75.2053C89.6412 78.7779 87.6367 82.7614 86.327 86.9926L86.2007 87.4215Z" fill="#2F2E41"/>
<path d="M552.588 340.607H152.592C149.035 340.607 145.624 339.193 143.108 336.676C140.593 334.16 139.18 330.747 139.18 327.188C284.178 310.327 426.452 310.327 566 327.188C566 330.747 564.587 334.16 562.072 336.676C559.556 339.193 556.145 340.607 552.588 340.607Z" fill="#2F2E41"/>
<path d="M566 327.977L139.18 327.188L188.647 243.911L188.884 243.516V59.9833C188.884 57.7556 189.322 55.5496 190.174 53.4915C191.026 51.4333 192.275 49.5632 193.849 47.988C195.424 46.4128 197.293 45.1633 199.35 44.3109C201.407 43.4585 203.612 43.0198 205.838 43.02H496.975C499.202 43.0198 501.406 43.4585 503.463 44.3109C505.52 45.1633 507.39 46.4128 508.964 47.988C510.538 49.5632 511.787 51.4333 512.639 53.4915C513.491 55.5496 513.93 57.7556 513.929 59.9833V244.779L566 327.977Z" fill="#3F3D56"/>
<path d="M205.452 54.8604C203.988 54.862 202.584 55.4447 201.549 56.4805C200.513 57.5164 199.931 58.9209 199.929 60.3858V227.729C199.931 229.194 200.513 230.598 201.549 231.634C202.584 232.67 203.988 233.253 205.452 233.255H499.729C501.193 233.253 502.596 232.67 503.632 231.634C504.667 230.598 505.249 229.194 505.251 227.729V60.3858C505.25 58.9209 504.667 57.5165 503.632 56.4806C502.596 55.4448 501.193 54.8621 499.729 54.8604H205.452Z" fill="white"/>
<path d="M206.685 255.356C206.233 255.357 205.79 255.487 205.409 255.732C205.028 255.976 204.725 256.324 204.535 256.735L189.292 289.888C189.126 290.248 189.054 290.645 189.081 291.041C189.109 291.438 189.235 291.82 189.45 292.155C189.664 292.489 189.958 292.764 190.307 292.955C190.655 293.146 191.045 293.245 191.442 293.246H511.98C512.383 293.245 512.78 293.142 513.132 292.946C513.485 292.749 513.781 292.466 513.993 292.122C514.205 291.779 514.326 291.387 514.344 290.984C514.362 290.58 514.277 290.179 514.096 289.818L497.528 256.665C497.333 256.271 497.031 255.94 496.657 255.708C496.283 255.477 495.852 255.355 495.412 255.356H206.685Z" fill="#2F2E41"/>
<path d="M351.407 52.0974C353.367 52.0974 354.957 50.507 354.957 48.5453C354.957 46.5835 353.367 44.9932 351.407 44.9932C349.446 44.9932 347.856 46.5835 347.856 48.5453C347.856 50.507 349.446 52.0974 351.407 52.0974Z" fill="white"/>
<path d="M319.901 299.56C319.38 299.561 318.875 299.733 318.462 300.049C318.049 300.366 317.751 300.81 317.615 301.312L313.792 315.521C313.697 315.872 313.685 316.24 313.755 316.596C313.826 316.953 313.978 317.288 314.199 317.577C314.419 317.865 314.704 318.099 315.03 318.26C315.355 318.421 315.714 318.505 316.077 318.505H388.789C389.167 318.505 389.538 318.414 389.874 318.241C390.209 318.068 390.498 317.818 390.717 317.51C390.936 317.202 391.078 316.847 391.132 316.473C391.185 316.1 391.149 315.719 391.025 315.362L386.11 301.153C385.948 300.688 385.646 300.285 385.246 299.999C384.845 299.714 384.365 299.56 383.873 299.56H319.901Z" fill="#2F2E41"/>
<path d="M513.929 240.753V243.911H188.647L188.892 243.516V240.753H513.929Z" fill="#2F2E41"/>
<path d="M504.857 110.51C535.357 110.51 560.083 85.7713 560.083 55.2548C560.083 24.7384 535.357 0 504.857 0C474.356 0 449.63 24.7384 449.63 55.2548C449.63 85.7713 474.356 110.51 504.857 110.51Z" fill="#29ABE2"/>
<path d="M527.736 79.33H481.977C481.14 79.3291 480.338 78.9962 479.746 78.4043C479.155 77.8123 478.822 77.0097 478.821 76.1725V48.5451C478.822 47.708 479.155 46.9054 479.747 46.3135C480.338 45.7215 481.14 45.3886 481.977 45.3877H527.736C528.573 45.3886 529.375 45.7215 529.966 46.3135C530.558 46.9054 530.891 47.708 530.892 48.5451V76.1725C530.891 77.0097 530.558 77.8123 529.966 78.4043C529.375 78.9962 528.573 79.3291 527.736 79.33ZM481.977 48.5451V76.1725H527.738L527.736 48.5451L481.977 48.5451Z" fill="white"/>
<path d="M519.058 48.5452H490.656V35.9155C490.656 26.7678 496.628 20.1284 504.857 20.1284C513.085 20.1284 519.058 26.7678 519.058 35.9155L519.058 48.5452ZM493.812 45.3878H515.902V35.9155C515.902 28.4794 511.36 23.2859 504.857 23.2859C498.353 23.2859 493.812 28.4795 493.812 35.9155L493.812 45.3878Z" fill="white"/>
<path d="M504.857 64.7269C506.6 64.7269 508.013 63.3133 508.013 61.5695C508.013 59.8257 506.6 58.4121 504.857 58.4121C503.114 58.4121 501.701 59.8257 501.701 61.5695C501.701 63.3133 503.114 64.7269 504.857 64.7269Z" fill="white"/>
<path d="M466.304 176.493H238.876C237.76 176.492 236.689 176.047 235.9 175.257C235.11 174.467 234.666 173.396 234.665 172.279V115.835C234.666 114.718 235.11 113.647 235.9 112.857C236.689 112.067 237.76 111.622 238.876 111.621H466.304C467.42 111.622 468.491 112.067 469.28 112.857C470.07 113.647 470.514 114.718 470.515 115.835V172.279C470.514 173.396 470.07 174.467 469.28 175.257C468.491 176.047 467.42 176.492 466.304 176.493ZM238.876 113.307C238.206 113.307 237.564 113.574 237.09 114.048C236.616 114.522 236.35 115.165 236.349 115.835V172.279C236.35 172.95 236.616 173.592 237.09 174.066C237.564 174.54 238.206 174.807 238.876 174.808H466.304C466.974 174.807 467.616 174.54 468.09 174.066C468.564 173.592 468.83 172.95 468.831 172.279V115.835C468.83 115.165 468.564 114.522 468.09 114.048C467.616 113.574 466.974 113.307 466.304 113.307L238.876 113.307Z" fill="#E6E6E6"/>
<path d="M274.214 159.056C283.689 159.056 291.37 151.371 291.37 141.891C291.37 132.412 283.689 124.727 274.214 124.727C264.739 124.727 257.058 132.412 257.058 141.891C257.058 151.371 264.739 159.056 274.214 159.056Z" fill="#E6E6E6"/>
<path d="M313.836 130.448C313.46 130.448 313.088 130.521 312.74 130.665C312.393 130.808 312.077 131.019 311.811 131.285C311.545 131.55 311.334 131.866 311.19 132.213C311.046 132.561 310.972 132.933 310.972 133.309C310.972 133.685 311.046 134.057 311.19 134.405C311.334 134.752 311.545 135.068 311.811 135.334C312.077 135.599 312.393 135.81 312.74 135.953C313.088 136.097 313.46 136.17 313.836 136.17H448.632C449.391 136.17 450.118 135.868 450.654 135.332C451.19 134.795 451.492 134.068 451.492 133.309C451.492 132.55 451.19 131.823 450.654 131.286C450.118 130.75 449.391 130.448 448.632 130.448H313.836Z" fill="#E6E6E6"/>
<path d="M313.836 147.613C313.078 147.613 312.35 147.915 311.814 148.451C311.278 148.988 310.977 149.715 310.977 150.474C310.977 151.233 311.278 151.96 311.814 152.497C312.35 153.033 313.078 153.335 313.836 153.335H371.839C372.597 153.335 373.325 153.033 373.861 152.497C374.397 151.96 374.698 151.233 374.698 150.474C374.698 149.715 374.397 148.988 373.861 148.451C373.325 147.915 372.597 147.613 371.839 147.613H313.836Z" fill="#E6E6E6"/>
<path d="M188.088 148.77L146.046 171.133L145.514 152.497C159.236 150.205 172.291 146.215 184.362 139.719L188.759 128.85C189.239 127.665 190.017 126.626 191.019 125.834C192.021 125.041 193.212 124.523 194.474 124.331C195.736 124.138 197.027 124.277 198.22 124.734C199.412 125.191 200.465 125.95 201.276 126.937C202.462 128.382 203.055 130.223 202.934 132.089C202.814 133.954 201.989 135.704 200.628 136.984L188.088 148.77Z" fill="#FFB8B8"/>
<path d="M85.3627 277.886C85.056 276.76 84.9909 275.583 85.1716 274.43C85.3524 273.278 85.7749 272.177 86.4114 271.199L95.6468 257.019C97.8312 253.665 101.183 251.242 105.052 250.221C108.921 249.2 113.031 249.653 116.584 251.492C112.703 258.102 113.244 263.901 117.925 268.94C110.659 272.49 103.943 277.07 97.9857 282.541C96.8982 283.283 95.6493 283.754 94.3429 283.915C93.0366 284.076 91.7107 283.922 90.4757 283.467C89.2407 283.011 88.1324 282.267 87.243 281.296C86.3536 280.326 85.709 279.156 85.3627 277.886Z" fill="#2F2E41"/>
<path d="M190.003 259.344C188.605 261.674 186.632 263.606 184.274 264.954C181.915 266.302 179.25 267.021 176.534 267.042L115.18 267.507L112.519 252.066L139.66 244.079L116.776 226.508L141.789 197.223L187.218 239.588C189.874 242.064 191.599 245.377 192.106 248.973C192.613 252.569 191.87 256.23 190.003 259.344Z" fill="#2F2E41"/>
<path d="M105.601 364.945H91.232C78.331 276.468 65.199 187.743 104.004 154.627L149.771 162.082L143.917 200.951L118.373 230.235L105.601 364.945Z" fill="#2F2E41"/>
<path d="M118.231 384.988C117.106 385.295 115.929 385.36 114.778 385.18C113.626 384.999 112.525 384.576 111.548 383.939L95.9469 381.841C92.5944 379.656 90.1728 376.303 89.1519 372.432C88.131 368.561 88.5835 364.449 90.4218 360.893C97.0288 364.776 102.825 364.234 107.861 359.551C111.42 366.74 117.283 366.302 122.883 372.358C123.624 373.446 124.095 374.696 124.256 376.003C124.417 377.31 124.264 378.637 123.809 379.872C123.354 381.108 122.61 382.217 121.64 383.107C120.67 383.997 119.501 384.642 118.231 384.988Z" fill="#2F2E41"/>
<path d="M139.66 95.5252L113.051 89.1358C117.47 80.0852 117.834 70.0145 115.712 59.3186L133.806 58.7861C134.373 72.0868 136.088 84.513 139.66 95.5252Z" fill="#FFB8B8"/>
<path d="M146.972 178.113C127.602 191.319 113.916 178.565 103.472 158.887C104.923 146.845 102.573 132.435 98.2208 116.778C96.2852 109.872 97.0078 102.491 100.246 96.0917C103.484 89.6927 109.003 84.7409 115.712 82.2139L138.595 91.798C158.026 107.644 161.85 124.809 154.56 142.913L146.972 178.113Z" fill="#29ABE2"/>
<path d="M91.2317 108.837L69.9447 120.018L107.729 142.381L112.987 155.356C113.337 156.222 113.508 157.151 113.489 158.085C113.47 159.019 113.26 159.94 112.873 160.791C112.487 161.641 111.931 162.404 111.24 163.033C110.549 163.662 109.737 164.143 108.855 164.448C107.851 164.794 106.781 164.903 105.728 164.766C104.675 164.63 103.668 164.251 102.786 163.66C101.903 163.069 101.17 162.282 100.643 161.36C100.115 160.438 99.8083 159.406 99.746 158.346L99.2143 149.303L51.1908 133.447C49.5728 132.913 48.0975 132.017 46.8766 130.828C45.6558 129.639 44.7214 128.187 44.1443 126.583C43.303 124.245 43.2602 121.694 44.0225 119.329C44.7848 116.964 46.3092 114.919 48.3572 113.513L86.9743 87.0063L91.2317 108.837Z" fill="#FFB8B8"/>
<path d="M112.519 110.966C103.641 107.074 95.5677 111.302 85.3778 114.693L83.7812 86.4735C93.8994 81.0779 103.546 79.6232 112.519 83.8113L112.519 110.966Z" fill="#29ABE2"/>
<path d="M123.139 72.7644C132.522 72.7644 140.128 65.1544 140.128 55.767C140.128 46.3795 132.522 38.7695 123.139 38.7695C113.756 38.7695 106.15 46.3795 106.15 55.767C106.15 65.1544 113.756 72.7644 123.139 72.7644Z" fill="#FFB8B8"/>
<path d="M143.463 53.6225C126.643 55.2708 113.826 52.5185 105.634 44.6817V38.3706H142.035L143.463 53.6225Z" fill="#2F2E41"/>
</g>
<defs>
<clipPath id="clip0_589_4">
<rect width="566" height="394" fill="white"/>
</clipPath>
</defs>
</svg>
